<svg width="272" height="65" viewBox="0 0 272 65" fill="none" xmlns="http://www.w3.org/2000/svg">
<path d="M12.3457 51.9115C10.033 51.9115 7.95837 51.5009 6.12183 50.6796C4.28528 49.8242 2.82284 48.6779 1.73452 47.2407C0.680203 45.8035 0.102031 44.2124 0 42.4672H7.19315C7.32919 43.5622 7.85634 44.469 8.77462 45.1876C9.7269 45.9062 10.9003 46.2655 12.2947 46.2655C13.6551 46.2655 14.7094 45.9917 15.4576 45.4442C16.2398 44.8967 16.631 44.1953 16.631 43.3398C16.631 42.4159 16.1548 41.7316 15.2025 41.2867C14.2843 40.8077 12.8048 40.2944 10.7642 39.7469C8.65558 39.2336 6.92107 38.7032 5.56066 38.1557C4.23426 37.6083 3.07792 36.7699 2.09162 35.6407C1.13934 34.5115 0.663198 32.9888 0.663198 31.0726C0.663198 29.4985 1.10533 28.0614 1.98959 26.7611C2.90787 25.4608 4.20025 24.4342 5.86675 23.6814C7.56726 22.9286 9.55685 22.5522 11.8355 22.5522C15.2025 22.5522 17.8893 23.4077 19.8959 25.1186C21.9025 26.7953 23.0079 29.0708 23.2119 31.9451H16.3759C16.2739 30.8159 15.7977 29.9263 14.9475 29.2761C14.1312 28.5917 13.0259 28.2496 11.6315 28.2496C10.3391 28.2496 9.33579 28.4891 8.62157 28.9681C7.94137 29.4472 7.60127 30.1145 7.60127 30.9699C7.60127 31.928 8.07741 32.6637 9.02969 33.177C9.98198 33.656 11.4614 34.1522 13.468 34.6655C15.5086 35.1788 17.1921 35.7091 18.5185 36.2566C19.8449 36.8041 20.9843 37.6596 21.9365 38.823C22.9228 39.9522 23.433 41.4578 23.467 43.3398C23.467 44.9823 23.0079 46.4537 22.0896 47.754C21.2053 49.0543 19.9129 50.0808 18.2124 50.8336C16.5459 51.5522 14.5904 51.9115 12.3457 51.9115Z" fill="#2B2C34"/>
<path d="M41.8795 51.9115C39.1587 51.9115 36.71 51.3127 34.5333 50.115C32.3567 48.8832 30.6392 47.1551 29.3808 44.931C28.1564 42.7068 27.5442 40.1404 27.5442 37.2319C27.5442 34.3233 28.1734 31.7569 29.4318 29.5327C30.7242 27.3086 32.4757 25.5976 34.6864 24.4C36.897 23.1681 39.3628 22.5522 42.0836 22.5522C44.8044 22.5522 47.2701 23.1681 49.4808 24.4C51.6914 25.5976 53.426 27.3086 54.6843 29.5327C55.9767 31.7569 56.6229 34.3233 56.6229 37.2319C56.6229 40.1404 55.9597 42.7068 54.6333 44.931C53.3409 47.1551 51.5724 48.8832 49.3277 50.115C47.1171 51.3127 44.6343 51.9115 41.8795 51.9115ZM41.8795 45.6495C43.1719 45.6495 44.3793 45.3416 45.5016 44.7257C46.6579 44.0755 47.5762 43.1174 48.2564 41.8513C48.9366 40.5852 49.2767 39.0454 49.2767 37.2319C49.2767 34.5286 48.5625 32.4584 47.1341 31.0212C45.7397 29.5499 44.0221 28.8142 41.9815 28.8142C39.9409 28.8142 38.2234 29.5499 36.829 31.0212C35.4686 32.4584 34.7884 34.5286 34.7884 37.2319C34.7884 39.9351 35.4516 42.0224 36.778 43.4938C38.1384 44.931 39.8389 45.6495 41.8795 45.6495Z" fill="#2B2C34"/>
<path d="M69.0041 13.4673V51.4495H61.8619V13.4673H69.0041Z" fill="#2B2C34"/>
<path d="M102.741 23.0142V51.4495H95.5483V47.8566C94.6301 49.0885 93.4227 50.0637 91.9262 50.7823C90.4638 51.4666 88.8653 51.8088 87.1308 51.8088C84.9201 51.8088 82.9646 51.3469 81.2641 50.423C79.5635 49.4649 78.2202 48.079 77.2339 46.2655C76.2816 44.4177 75.8054 42.2277 75.8054 39.6956V23.0142H82.9476V38.669C82.9476 40.9274 83.5087 42.6726 84.6311 43.9044C85.7534 45.1021 87.2839 45.7009 89.2224 45.7009C91.195 45.7009 92.7425 45.1021 93.8648 43.9044C94.9872 42.6726 95.5483 40.9274 95.5483 38.669V23.0142H102.741Z" fill="#2B2C34"/>
<path d="M120.604 51.9115C118.291 51.9115 116.216 51.5009 114.38 50.6796C112.543 49.8242 111.081 48.6779 109.992 47.2407C108.938 45.8035 108.36 44.2124 108.258 42.4672H115.451C115.587 43.5622 116.114 44.469 117.033 45.1876C117.985 45.9062 119.158 46.2655 120.553 46.2655C121.913 46.2655 122.967 45.9917 123.715 45.4442C124.498 44.8967 124.889 44.1953 124.889 43.3398C124.889 42.4159 124.413 41.7316 123.46 41.2867C122.542 40.8077 121.063 40.2944 119.022 39.7469C116.913 39.2336 115.179 38.7032 113.819 38.1557C112.492 37.6083 111.336 36.7699 110.35 35.6407C109.397 34.5115 108.921 32.9888 108.921 31.0726C108.921 29.4985 109.363 28.0614 110.247 26.7611C111.166 25.4608 112.458 24.4342 114.125 23.6814C115.825 22.9286 117.815 22.5522 120.093 22.5522C123.46 22.5522 126.147 23.4077 128.154 25.1186C130.16 26.7953 131.266 29.0708 131.47 31.9451H124.634C124.532 30.8159 124.056 29.9263 123.205 29.2761C122.389 28.5917 121.284 28.2496 119.889 28.2496C118.597 28.2496 117.594 28.4891 116.879 28.9681C116.199 29.4472 115.859 30.1145 115.859 30.9699C115.859 31.928 116.335 32.6637 117.288 33.177C118.24 33.656 119.719 34.1522 121.726 34.6655C123.767 35.1788 125.45 35.7091 126.776 36.2566C128.103 36.8041 129.242 37.6596 130.194 38.823C131.181 39.9522 131.691 41.4578 131.725 43.3398C131.725 44.9823 131.266 46.4537 130.347 47.754C129.463 49.0543 128.171 50.0808 126.47 50.8336C124.804 51.5522 122.848 51.9115 120.604 51.9115Z" fill="#2B2C34"/>
<path d="M177.561 22.6035C180.928 22.6035 183.649 23.6814 185.724 25.8372C187.798 27.9587 188.836 30.9357 188.836 34.7681V51.4495H181.693V35.7434C181.693 33.485 181.132 31.7569 180.01 30.5593C178.888 29.3274 177.357 28.7115 175.419 28.7115C173.446 28.7115 171.882 29.3274 170.725 30.5593C169.603 31.7569 169.042 33.485 169.042 35.7434V51.4495H161.9V23.0142H169.042V26.5558C169.994 25.3239 171.201 24.3658 172.664 23.6814C174.16 22.9628 175.793 22.6035 177.561 22.6035Z" fill="#2B2C34"/>
<path d="M193.791 37.1292C193.791 34.2549 194.352 31.7056 195.474 29.4814C196.631 27.2572 198.178 25.5463 200.117 24.3487C202.089 23.151 204.283 22.5522 206.698 22.5522C208.806 22.5522 210.643 22.9799 212.207 23.8354C213.806 24.6909 215.081 25.7687 216.034 27.069V23.0142H223.227V51.4495H216.034V47.292C215.115 48.6265 213.84 49.7386 212.207 50.6283C210.609 51.4838 208.755 51.9115 206.647 51.9115C204.266 51.9115 202.089 51.2956 200.117 50.0637C198.178 48.8318 196.631 47.1038 195.474 44.8796C194.352 42.6212 193.791 40.0378 193.791 37.1292ZM216.034 37.2319C216.034 35.4867 215.693 33.9982 215.013 32.7664C214.333 31.5003 213.415 30.5422 212.258 29.892C211.102 29.2077 209.861 28.8655 208.534 28.8655C207.208 28.8655 205.984 29.1906 204.861 29.8407C203.739 30.4909 202.821 31.449 202.106 32.715C201.426 33.9469 201.086 35.4183 201.086 37.1292C201.086 38.8401 201.426 40.3457 202.106 41.646C202.821 42.9121 203.739 43.8873 204.861 44.5717C206.018 45.256 207.242 45.5982 208.534 45.5982C209.861 45.5982 211.102 45.2731 212.258 44.623C213.415 43.9386 214.333 42.9805 215.013 41.7487C215.693 40.4826 216.034 38.977 216.034 37.2319Z" fill="#2B2C34"/>
<path d="M233.824 19.6266C232.532 19.6266 231.461 19.233 230.61 18.446C229.794 17.6248 229.386 16.6153 229.386 15.4177C229.386 14.2201 229.794 13.2277 230.61 12.4407C231.461 11.6195 232.532 11.2089 233.824 11.2089C235.083 11.2089 236.12 11.6195 236.936 12.4407C237.752 13.2277 238.161 14.2201 238.161 15.4177C238.161 16.6153 237.752 17.6248 236.936 18.446C236.12 19.233 235.083 19.6266 233.824 19.6266ZM237.344 56.1203C237.344 59.2684 236.562 61.5268 234.998 62.8955C233.467 64.2985 231.257 65 228.366 65H225.203V58.892H227.243C228.332 58.892 229.097 58.6696 229.539 58.2248C229.981 57.8141 230.202 57.1298 230.202 56.1717V23.0142H237.344V56.1203Z" fill="#2B2C34"/>
<path d="M242.564 37.1292C242.564 34.2549 243.125 31.7056 244.248 29.4814C245.404 27.2572 246.952 25.5463 248.89 24.3487C250.863 23.151 253.056 22.5522 255.471 22.5522C257.58 22.5522 259.416 22.9799 260.981 23.8354C262.579 24.6909 263.855 25.7687 264.807 27.069V23.0142H272V51.4495H264.807V47.292C263.889 48.6265 262.613 49.7386 260.981 50.6283C259.382 51.4838 257.529 51.9115 255.42 51.9115C253.039 51.9115 250.863 51.2956 248.89 50.0637C246.952 48.8318 245.404 47.1038 244.248 44.8796C243.125 42.6212 242.564 40.0378 242.564 37.1292ZM264.807 37.2319C264.807 35.4867 264.467 33.9982 263.787 32.7664C263.106 31.5003 262.188 30.5422 261.032 29.892C259.875 29.2077 258.634 28.8655 257.308 28.8655C255.981 28.8655 254.757 29.1906 253.635 29.8407C252.512 30.4909 251.594 31.449 250.88 32.715C250.199 33.9469 249.859 35.4183 249.859 37.1292C249.859 38.8401 250.199 40.3457 250.88 41.646C251.594 42.9121 252.512 43.8873 253.635 44.5717C254.791 45.256 256.015 45.5982 257.308 45.5982C258.634 45.5982 259.875 45.2731 261.032 44.623C262.188 43.9386 263.106 42.9805 263.787 41.7487C264.467 40.4826 264.807 38.977 264.807 37.2319Z" fill="#2B2C34"/>
<path d="M144 52H137V22C140.866 22 144 25.134 144 29V52Z" fill="#2B2C34"/>
<path d="M157 52H149V30C149 25.5817 152.582 22 157 22V52Z" fill="#2B2C34"/>
<path d="M157 10C157 15.5228 152.523 20 147 20C141.477 20 137 15.5228 137 10C137 4.47715 141.477 0 147 0C152.523 0 157 4.47715 157 10Z" fill="#188469"/>
</svg>
